<svg width="900" height="900" viewBox="0 0 900 900" fill="none" xmlns="http://www.w3.org/2000/svg">
  <defs>
    <linearGradient id="bg" x1="450" y1="0" x2="450" y2="900" gradientUnits="userSpaceOnUse">
      <stop stop-color="#FAF7F1"/>
      <stop offset="1" stop-color="#F3ECE0"/>
    </linearGradient>
    <linearGradient id="wax" x1="450" y1="230" x2="450" y2="710" gradientUnits="userSpaceOnUse">
      <stop stop-color="#F5D9AA"/>
      <stop offset="1" stop-color="#E8C58F"/>
    </linearGradient>
    <radialGradient id="glow" cx="0" cy="0" r="1" gradientUnits="userSpaceOnUse" gradientTransform="translate(450 200) rotate(90) scale(120 80)">
      <stop stop-color="#FFD37D" stop-opacity="0.9"/>
      <stop offset="1" stop-color="#FFD37D" stop-opacity="0"/>
    </radialGradient>
  </defs>
  <rect width="900" height="900" fill="url(#bg)"/>
  <ellipse cx="450" cy="725" rx="210" ry="34" fill="#E8DFD1"/>
  <rect x="305" y="250" width="290" height="450" rx="44" fill="url(#wax)"/>
  <ellipse cx="450" cy="250" rx="145" ry="34" fill="#F8E7C6"/>
  <rect x="438" y="185" width="24" height="84" rx="12" fill="#5D4A35"/>
  <ellipse cx="450" cy="200" rx="80" ry="120" fill="url(#glow)"/>
  <path d="M450 120C500 175 484 236 450 255C416 236 400 175 450 120Z" fill="#FFB84A"/>
  <path d="M450 145C474 176 468 213 450 224C432 213 426 176 450 145Z" fill="#FFE1A6"/>
  <rect x="340" y="336" width="220" height="14" rx="7" fill="#DFC08E"/>
  <rect x="340" y="392" width="220" height="14" rx="7" fill="#DFC08E"/>
  <rect x="340" y="448" width="220" height="14" rx="7" fill="#DFC08E"/>
</svg>
