<svg width="900" height="900" viewBox="0 0 900 900" fill="none" xmlns="http://www.w3.org/2000/svg">
  <rect width="900" height="900" rx="54" fill="#F4F0EA"/>
  <circle cx="450" cy="450" r="290" fill="#FFFFFF" opacity="0.72"/>
  <path d="M450 172c-28 0-52 22-52 50v106H292c-28 0-50 22-50 50s22 50 50 50h106v250c0 28 24 50 52 50s52-22 52-50V428h106c28 0 50-22 50-50s-22-50-50-50H502V222c0-28-24-50-52-50Z" fill="#5B514A"/>
  <path d="M450 196c-15 0-28 12-28 27v432c0 15 13 27 28 27s28-12 28-27V223c0-15-13-27-28-27Z" fill="#B7A99B" opacity="0.42"/>
  <path d="M318 352c-15 0-27 12-27 27s12 27 27 27h264c15 0 27-12 27-27s-12-27-27-27H318Z" fill="#B7A99B" opacity="0.32"/>
</svg>
